<?xml version="1.0" standalone="no"?>
<!DOCTYPE svg PUBLIC "-//W3C//DTD SVG 20010904//EN"
 "http://www.w3.org/TR/2001/REC-SVG-20010904/DTD/svg10.dtd">
<svg version="1.0" xmlns="http://www.w3.org/2000/svg"
 width="838.000000pt" height="270.000000pt" viewBox="0 0 838.000000 270.000000"
 preserveAspectRatio="xMidYMid meet">

<g transform="translate(0.000000,270.000000) scale(0.100000,-0.100000)"
fill="#000000" stroke="none">
<path d="M196 2535 c25 -76 190 -617 224 -730 23 -77 70 -232 105 -345 69
-223 239 -779 316 -1035 27 -88 56 -184 65 -213 l17 -52 186 2 185 3 32 105
c68 221 178 590 209 700 47 163 141 479 175 585 16 50 55 178 85 285 53 182
202 679 213 708 7 19 -445 13 -457 -6 -4 -7 -22 -77 -40 -155 -46 -198 -187
-736 -322 -1223 -38 -138 -69 -260 -69 -270 0 -11 -3 -14 -8 -8 -11 11 -124
414 -313 1117 -79 290 -145 531 -149 536 -3 5 -108 11 -233 13 -221 3 -227 3
-221 -17z"/>
<path d="M2191 1355 l0 -1195 209 0 210 0 2 1195 3 1195 -211 0 -212 0 -1
-1195z"/>
<path d="M3440 1354 l0 -1195 438 3 c467 5 473 5 612 60 240 95 426 313 464
543 25 148 27 248 18 725 l-8 455 -28 80 c-88 257 -341 471 -607 514 -37 6
-239 11 -476 11 l-413 0 0 -1196z m903 782 c99 -47 178 -161 198 -287 8 -44 8
-213 2 -539 l-8 -475 -32 -66 c-41 -84 -98 -148 -159 -179 -48 -24 -55 -25
-266 -26 l-218 -1 0 798 0 798 138 4 c232 6 282 2 345 -27z"/>
<path d="M5210 1355 l0 -1195 590 0 590 0 0 205 0 205 -382 2 -383 3 0 301 0
301 149 7 c82 3 218 6 303 6 l153 0 0 188 0 189 -297 7 c-164 4 -299 8 -300
10 -1 1 -3 132 -3 292 l-1 289 373 5 373 5 3 155 c2 85 0 170 -3 188 l-6 32
-579 0 -580 0 0 -1195z"/>
<path d="M6525 2403 c146 -508 215 -747 282 -968 41 -137 88 -295 103 -350 15
-55 51 -179 80 -275 29 -96 83 -281 120 -410 l68 -235 171 -3 c94 -1 171 0
171 3 0 2 20 69 44 147 24 79 51 168 59 198 8 30 77 269 152 530 76 261 203
707 284 990 l147 515 -220 3 c-120 1 -221 1 -223 -2 -2 -2 -23 -82 -47 -177
-24 -96 -94 -370 -156 -609 -61 -239 -133 -525 -160 -635 -26 -110 -50 -193
-54 -185 -3 8 -59 233 -125 500 -66 267 -156 625 -200 795 l-79 310 -229 3
-230 2 42 -147z"/>
<path d="M2833 573 c-10 -3 -13 -55 -13 -209 l0 -204 190 0 190 0 0 204 0 204
-31 6 c-37 7 -318 7 -336 -1z"/>
</g>
</svg>
